#!OML:ASF H:\Terrain\Patient Classification 1\Walking\steve\steve.ASF
:FULLY-SPECIFIED
:DEGREES
279
root 9.77136 16.5703 25.7328 5.73421 -10.2873 2.4764
lowerback -0.759048 4.92892 -3.97153
upperback -3.93064 6.45997 -2.16615
thorax -3.82201 3.31037 -0.206508
lowerneck -11.8464 -1.20995 -4.81458
upperneck 13.033 -1.27133 3.3395
head 5.94414 -0.598261 1.73696
rclavicle -3.33213e-014 -6.75868e-015
rhumerus -27.2309 -0.289622 -86.8056
rradius 54.2737
rwrist -22.4388
rhand -21.6749 -37.9053
rfingers 7.12502
rthumb 4.72273 -67.8327
lclavicle -3.33213e-014 -6.75868e-015
lhumerus -67.0372 30.1667 38.0662
lradius 9.31832
lwrist -29.5878
lhand -17.7306 -6.81938
lfingers 7.12502
lthumb 8.53033 22.9883
rfemur -5.17485 7.013 16.5289
rtibia 61.1574
rfoot 16.1364 -8.27398
rtoes 1.1856
lfemur -31.9769 3.34186 -25.4473
ltibia 34.1005
lfoot -9.4098 1.88035
ltoes 2.94858
280
root 9.78488 16.5945 25.9329 5.64022 -10.2819 2.41584
lowerback -0.68199 4.87494 -3.87305
upperback -3.79723 6.39347 -2.04867
thorax -3.72637 3.27406 -0.13638
lowerneck -11.6342 -1.20532 -5.05418
upperneck 12.6285 -1.22164 3.31074
head 5.78012 -0.587718 1.76966
rclavicle -7.35255e-014 -1.74931e-014
rhumerus -27.7415 -0.178082 -86.9322
rradius 53.2563
rwrist -22.6361
rhand -21.0271 -38.0088
rfingers 7.12502
rthumb 5.34814 -67.9213
lclavicle -7.35255e-014 -1.74931e-014
lhumerus -66.5697 31.6168 37.9231
lradius 9.54171
lwrist -30.6037
lhand -17.985 -7.34797
lfingers 7.12502
lthumb 8.28477 22.4696
rfemur -6.67296 6.77498 16.6665
rtibia 63.1932
rfoot 12.6314 -8.54285
rtoes 5.7579
lfemur -30.901 3.2901 -25.529
ltibia 33.8241
lfoot -10.1992 1.73683
ltoes 2.09204
281
root 9.79538 16.6773 26.1392 5.65772 -10.2591 2.51016
lowerback -0.839268 4.71112 -4.00011
upperback -3.61243 6.1896 -1.9773
thorax -3.46113 3.17328 0.0388521
lowerneck -11.7525 -1.07066 -5.02255
upperneck 12.4849 -1.01922 3.19125
head 5.74555 -0.494953 1.74274
rclavicle 2.89791e-014 -4.77083e-015
rhumerus -28.2052 -0.0683365 -87.1574
rradius 52.2525
rwrist -22.8465
rhand -19.7337 -38.5973
rfingers 7.12502
rthumb 6.59691 -68.4746
lclavicle 2.89791e-014 -4.77083e-015
lhumerus -66.1122 33.3961 37.6163
lradius 9.5942
lwrist -31.6248
lhand -18.9558 -7.85776
lfingers 7.12502
lthumb 7.3478 21.9946
rfemur -9.34214 8.28935 16.3735
rtibia 65.6461
rfoot 8.42514 -9.76549
rtoes 16.5549
lfemur -29.7668 3.19992 -25.7463
ltibia 33.3517
lfoot -11.1081 1.58244
ltoes 2.06917
282
root 9.81044 16.6561 26.3292 5.66991 -10.2306 2.79184
lowerback -0.90993 4.51643 -4.31496
upperback -3.5686 5.93132 -1.97101
thorax -3.40127 3.05245 0.233449
lowerneck -11.7775 -0.907435 -4.78642
upperneck 12.5393 -0.79747 2.90286
head 5.75553 -0.39766 1.63159
rclavicle -4.5764e-014 7.95139e-016
rhumerus -29.0274 -0.463818 -87.4357
rradius 51.0759
rwrist -22.1551
rhand -18.1991 -38.8827
rfingers 7.12502
rthumb 8.0782 -68.7083
lclavicle -4.5764e-014 7.95139e-016
lhumerus -65.9236 34.9081 37.0691
lradius 9.86724
lwrist -32.818
lhand -19.9219 -8.7583
lfingers 7.12502
lthumb 6.41523 21.1245
rfemur -10.6997 6.00888 16.4775
rtibia 66.9041
rfoot 8.79929 -4.6316
rtoes -12.8154
lfemur -28.9889 3.11017 -26.222
ltibia 33.1061
lfoot -11.6442 1.52303
ltoes 1.9245
283
root 9.82399 16.695 26.5287 5.72336 -10.0815 2.89412
lowerback -0.854438 4.32904 -4.38186
upperback -3.60955 5.67566 -1.96756
thorax -3.47213 2.92822 0.274432
lowerneck -11.7007 -0.790668 -4.58072
upperneck 12.5947 -0.65304 2.71741
head 5.75292 -0.332383 1.55159
rclavicle 9.5106e-015 2.94201e-014
rhumerus -29.9566 -0.936704 -87.6939
rradius 49.8501
rwrist -21.2934
rhand -17.2184 -39.1348
rfingers 7.12502
rthumb 9.02459 -68.9218
lclavicle 9.5106e-015 2.94201e-014
lhumerus -65.8199 36.189 36.4923
lradius 10.3547
lwrist -34.1494
lhand -20.3811 -10.0096
lfingers 7.12502
lthumb 5.97186 19.8863
rfemur -12.8065 5.88222 16.3848
rtibia 68.4213
rfoot 6.46689 -4.15952
rtoes -11.3393
lfemur -27.9866 2.97877 -26.4941
ltibia 32.662
lfoot -11.9848 1.34221
ltoes 1.8491
284
root 9.83629 16.7272 26.7296 5.7815 -9.90978 2.87594
lowerback -0.693812 4.14427 -4.34372
upperback -3.74663 5.41604 -1.9308
thorax -3.69454 2.80248 0.278942
lowerneck -11.5692 -0.671545 -4.55873
upperneck 12.7734 -0.51207 2.7757
head 5.78133 -0.260358 1.57912
rclavicle 5.67841e-014 -7.55382e-015
rhumerus -31.1099 -1.17304 -87.9253
rradius 48.7281
rwrist -20.9705
rhand -18.1843 -37.1782
rfingers 7.12502
rthumb 8.09247 -67.0032
lclavicle 5.67841e-014 -7.55382e-015
lhumerus -61.8376 34.6204 42.7188
lradius 10.9656
lwrist -29.1155
lhand -20.2342 -9.85147
lfingers 7.12502
lthumb 6.11373 20.0403
rfemur -14.5783 5.64178 16.4487
rtibia 69.3653
rfoot 4.52947 -4.40996
rtoes -5.29366
lfemur -27.1047 2.84662 -26.6217
ltibia 32.4918
lfoot -12.5382 1.10938
ltoes 2.11291
285
root 9.84749 16.7632 26.9352 5.8706 -9.85825 2.64036
lowerback -0.916398 4.04611 -4.10897
upperback -3.65441 5.30878 -1.76581
thorax -3.46154 2.74146 0.346413
lowerneck -11.5707 -0.657821 -4.63938
upperneck 12.8303 -0.462649 2.66076
head 5.79783 -0.249361 1.56031
rclavicle 8.08867e-014 1.98785e-015
rhumerus -32.0031 -1.63461 -87.8928
rradius 47.5622
rwrist -20.5582
rhand -15.7047 -41.6278
rfingers 7.12502
rthumb 10.485 -71.3463
lclavicle 8.08867e-014 1.98785e-015
lhumerus -58.7498 34.0979 46.9944
lradius 11.348
lwrist -26.5091
lhand -19.7207 -9.51687
lfingers 7.12502
lthumb 6.60945 20.36
rfemur -16.3557 5.41614 16.8505
rtibia 70.192
rfoot 2.79739 -4.21902
rtoes -4.39614
lfemur -26.0987 2.7101 -26.4838
ltibia 32.1122
lfoot -13.1302 1.04371
ltoes 2.58557
